<svg width="48" height="48" viewBox="0 0 48 48" fill="none" xmlns="http://www.w3.org/2000/svg">
<path d="M15.1903 7.62712C13.4344 7.69491 12.1513 7.76271 11.3409 7.8305C10.5981 7.8305 10.2266 7.62712 10.2266 7.22034C10.2266 6.81356 10.4292 6.40678 10.8344 6C15.1565 2 22.45 0 32.7149 0C36.2266 0 38.9955 0.305083 41.0214 0.915253L42.0344 1.22034C42.8448 1.55932 43.25 1.9322 43.25 2.33898C43.25 2.67796 43.0136 2.94915 42.5409 3.15254C40.7175 3.69492 38.9617 4.57627 37.2734 5.79661C35.5851 6.94915 34.7409 7.76271 34.7409 8.23729L35.3487 8.94915C37.5097 10.1695 39.1643 12.1017 40.3123 14.7458C41.5279 17.3898 42.2032 19.7288 42.3383 21.7627L42.5409 24.9153C42.5409 31.6271 40.6838 37.1525 36.9695 41.4915C33.2552 45.8305 28.1903 48 21.7747 48C18.5331 48 15.7305 47.4237 13.3669 46.2712C11.0032 45.1186 9.2474 43.8305 8.09935 42.4068C7.01883 40.9153 6.14091 39.2542 5.46558 37.4237C4.65519 34.9153 4.25 32.339 4.25 29.6949C4.25 26.9831 4.68896 24.2712 5.56688 21.5593C6.51234 18.8475 7.55909 16.8475 8.70714 15.5593C9.92273 14.2712 11.2734 13.2203 12.7591 12.4068C14.65 11.3898 16.1695 10.8814 17.3175 10.8814C18.4656 10.8814 19.0396 11.1186 19.0396 11.5932L18.4318 12.6102C16.9461 14.3729 15.8656 16.678 15.1903 19.5254C14.5825 22.3729 14.2786 24.9153 14.2786 27.1525C14.2786 29.322 14.5487 31.4915 15.089 33.661C15.6292 35.8305 16.237 37.4576 16.9123 38.5424C17.5877 39.5593 18.3643 40.339 19.2422 40.8814C20.5253 41.6949 21.876 42.1017 23.2942 42.1017C24.7123 42.1017 26.0968 41.5593 27.4474 40.4746C28.7981 39.322 29.7773 37.8305 30.3851 36C31.6006 32.6102 32.2084 29.1186 32.2084 25.5254C32.2084 19.8305 30.7565 15.4237 27.8526 12.3051C25.0162 9.18644 20.7955 7.62712 15.1903 7.62712Z" fill="white"/>
</svg>
